<svg width="21" height="20" viewBox="0 0 21 20" fill="none" xmlns="http://www.w3.org/2000/svg">
  <path d="M7.35 20C7.07152 20 6.80445 19.8946 6.60754 19.7071C6.41062 19.5196 6.3 19.2652 6.3 19V16H2.1C1.54305 16 1.0089 15.7893 0.615076 15.4142C0.221249 15.0391 0 14.5304 0 14V2C0 1.46957 0.221249 0.960859 0.615076 0.585786C1.0089 0.210714 1.54305 0 2.1 0H18.9C19.457 0 19.9911 0.210714 20.3849 0.585786C20.7787 0.960859 21 1.46957 21 2V14C21 14.5304 20.7787 15.0391 20.3849 15.4142C19.9911 15.7893 19.457 16 18.9 16H12.495L8.61 19.71C8.4 19.9 8.1375 20 7.875 20H7.35ZM8.4 14V17.08L11.634 14H18.9V2H2.1V14H8.4Z" fill="#72B3FE"/>
</svg>
